<svg xmlns:xlink="http://www.w3.org/1999/xlink" id="wave" style="transform:rotate(180deg); transition: 0.3s" viewBox="0 0 1440 490" width="100%" height="100%" preserveAspectRatio="none" version="1.1" xmlns="http://www.w3.org/2000/svg" ><defs><linearGradient id="sw-gradient-0" x1="0" x2="0" y1="1" y2="0"><stop stop-color="rgba(37, 99, 235, 1)" offset="0%"></stop><stop stop-color="rgba(37, 99, 235, 0.43)" offset="100%"></stop></linearGradient><linearGradient id="sw-gradient-0" x1="0" x2="0" y1="1" y2="0"><stop stop-color="rgba(37, 99, 235, 1)" offset="0%"></stop><stop stop-color="rgba(37, 99, 235, 0.43)" offset="100%"></stop></linearGradient><linearGradient id="sw-gradient-1" x1="0" x2="0" y1="1" y2="0"><stop stop-color="rgba(37, 99, 235, 1)" offset="0%"></stop><stop stop-color="rgba(37, 99, 235, 0.14)" offset="100%"></stop></linearGradient><linearGradient id="sw-gradient-2" x1="0" x2="0" y1="1" y2="0"><stop stop-color="rgba(37, 99, 235, 0.75)" offset="0%"></stop><stop stop-color="rgba(37, 99, 235, 1)" offset="100%"></stop></linearGradient><linearGradient id="sw-gradient-3" x1="0" x2="0" y1="1" y2="0"><stop stop-color="rgba(37, 99, 235, 1)" offset="0%"></stop><stop stop-color="rgba(37, 99, 235, 1)" offset="100%"></stop></linearGradient></defs><path style="transform:translate(0, 0px); opacity:1" fill="url(&quot;#sw-gradient-0&quot;)" d="M0,147L240,155.2C480,163,960,180,1440,196C1920,212,2400,229,2880,212.3C3360,196,3840,147,4320,171.5C4800,196,5280,294,5760,351.2C6240,408,6720,425,7200,392C7680,359,8160,278,8640,277.7C9120,278,9600,359,10080,343C10560,327,11040,212,11520,204.2C12000,196,12480,294,12960,310.3C13440,327,13920,261,14400,204.2C14880,147,15360,98,15840,114.3C16320,131,16800,212,17280,228.7C17760,245,18240,196,18720,155.2C19200,114,19680,82,20160,57.2C20640,33,21120,16,21600,81.7C22080,147,22560,294,23040,351.2C23520,408,24000,376,24480,351.2C24960,327,25440,310,25920,285.8C26400,261,26880,229,27360,236.8C27840,245,28320,294,28800,261.3C29280,229,29760,114,30240,98C30720,82,31200,163,31680,179.7C32160,196,32640,147,33120,155.2C33600,163,34080,229,34320,261.3L34560,294L34560,490L34320,490C34080,490,33600,490,33120,490C32640,490,32160,490,31680,490C31200,490,30720,490,30240,490C29760,490,29280,490,28800,490C28320,490,27840,490,27360,490C26880,490,26400,490,25920,490C25440,490,24960,490,24480,490C24000,490,23520,490,23040,490C22560,490,22080,490,21600,490C21120,490,20640,490,20160,490C19680,490,19200,490,18720,490C18240,490,17760,490,17280,490C16800,490,16320,490,15840,490C15360,490,14880,490,14400,490C13920,490,13440,490,12960,490C12480,490,12000,490,11520,490C11040,490,10560,490,10080,490C9600,490,9120,490,8640,490C8160,490,7680,490,7200,490C6720,490,6240,490,5760,490C5280,490,4800,490,4320,490C3840,490,3360,490,2880,490C2400,490,1920,490,1440,490C960,490,480,490,240,490L0,490Z"></path><defs><linearGradient id="sw-gradient-1" x1="0" x2="0" y1="1" y2="0"><stop stop-color="rgba(37, 99, 235, 1)" offset="0%"></stop><stop stop-color="rgba(37, 99, 235, 0.14)" offset="100%"></stop></linearGradient></defs><path style="transform:translate(0, 50px); opacity:0.9" fill="url(&quot;#sw-gradient-1&quot;)" d="M0,49L240,98C480,147,960,245,1440,245C1920,245,2400,147,2880,147C3360,147,3840,245,4320,285.8C4800,327,5280,310,5760,253.2C6240,196,6720,98,7200,49C7680,0,8160,0,8640,8.2C9120,16,9600,33,10080,89.8C10560,147,11040,245,11520,245C12000,245,12480,147,12960,163.3C13440,180,13920,310,14400,326.7C14880,343,15360,245,15840,187.8C16320,131,16800,114,17280,138.8C17760,163,18240,229,18720,269.5C19200,310,19680,327,20160,277.7C20640,229,21120,114,21600,114.3C22080,114,22560,229,23040,245C23520,261,24000,180,24480,155.2C24960,131,25440,163,25920,163.3C26400,163,26880,131,27360,106.2C27840,82,28320,65,28800,73.5C29280,82,29760,114,30240,122.5C30720,131,31200,114,31680,155.2C32160,196,32640,294,33120,351.2C33600,408,34080,425,34320,432.8L34560,441L34560,490L34320,490C34080,490,33600,490,33120,490C32640,490,32160,490,31680,490C31200,490,30720,490,30240,490C29760,490,29280,490,28800,490C28320,490,27840,490,27360,490C26880,490,26400,490,25920,490C25440,490,24960,490,24480,490C24000,490,23520,490,23040,490C22560,490,22080,490,21600,490C21120,490,20640,490,20160,490C19680,490,19200,490,18720,490C18240,490,17760,490,17280,490C16800,490,16320,490,15840,490C15360,490,14880,490,14400,490C13920,490,13440,490,12960,490C12480,490,12000,490,11520,490C11040,490,10560,490,10080,490C9600,490,9120,490,8640,490C8160,490,7680,490,7200,490C6720,490,6240,490,5760,490C5280,490,4800,490,4320,490C3840,490,3360,490,2880,490C2400,490,1920,490,1440,490C960,490,480,490,240,490L0,490Z"></path><defs><linearGradient id="sw-gradient-2" x1="0" x2="0" y1="1" y2="0"><stop stop-color="rgba(37, 99, 235, 0.75)" offset="0%"></stop><stop stop-color="rgba(37, 99, 235, 1)" offset="100%"></stop></linearGradient></defs><path style="transform:translate(0, 100px); opacity:0.8" fill="url(&quot;#sw-gradient-2&quot;)" d="M0,49L240,114.3C480,180,960,310,1440,326.7C1920,343,2400,245,2880,196C3360,147,3840,147,4320,138.8C4800,131,5280,114,5760,130.7C6240,147,6720,196,7200,245C7680,294,8160,343,8640,375.7C9120,408,9600,425,10080,400.2C10560,376,11040,310,11520,310.3C12000,310,12480,376,12960,375.7C13440,376,13920,310,14400,269.5C14880,229,15360,212,15840,228.7C16320,245,16800,294,17280,318.5C17760,343,18240,343,18720,318.5C19200,294,19680,245,20160,212.3C20640,180,21120,163,21600,163.3C22080,163,22560,180,23040,187.8C23520,196,24000,196,24480,163.3C24960,131,25440,65,25920,49C26400,33,26880,65,27360,130.7C27840,196,28320,294,28800,351.2C29280,408,29760,425,30240,383.8C30720,343,31200,245,31680,212.3C32160,180,32640,212,33120,196C33600,180,34080,114,34320,81.7L34560,49L34560,490L34320,490C34080,490,33600,490,33120,490C32640,490,32160,490,31680,490C31200,490,30720,490,30240,490C29760,490,29280,490,28800,490C28320,490,27840,490,27360,490C26880,490,26400,490,25920,490C25440,490,24960,490,24480,490C24000,490,23520,490,23040,490C22560,490,22080,490,21600,490C21120,490,20640,490,20160,490C19680,490,19200,490,18720,490C18240,490,17760,490,17280,490C16800,490,16320,490,15840,490C15360,490,14880,490,14400,490C13920,490,13440,490,12960,490C12480,490,12000,490,11520,490C11040,490,10560,490,10080,490C9600,490,9120,490,8640,490C8160,490,7680,490,7200,490C6720,490,6240,490,5760,490C5280,490,4800,490,4320,490C3840,490,3360,490,2880,490C2400,490,1920,490,1440,490C960,490,480,490,240,490L0,490Z"></path><defs><linearGradient id="sw-gradient-3" x1="0" x2="0" y1="1" y2="0"><stop stop-color="rgba(37, 99, 235, 1)" offset="0%"></stop><stop stop-color="rgba(37, 99, 235, 1)" offset="100%"></stop></linearGradient></defs><path style="transform:translate(0, 150px); opacity:0.7" fill="url(&quot;#sw-gradient-3&quot;)" d="M0,441L240,432.8C480,425,960,408,1440,392C1920,376,2400,359,2880,343C3360,327,3840,310,4320,326.7C4800,343,5280,392,5760,343C6240,294,6720,147,7200,106.2C7680,65,8160,131,8640,187.8C9120,245,9600,294,10080,334.8C10560,376,11040,408,11520,359.3C12000,310,12480,180,12960,106.2C13440,33,13920,16,14400,8.2C14880,0,15360,0,15840,49C16320,98,16800,196,17280,228.7C17760,261,18240,229,18720,245C19200,261,19680,327,20160,367.5C20640,408,21120,425,21600,424.7C22080,425,22560,408,23040,334.8C23520,261,24000,131,24480,65.3C24960,0,25440,0,25920,65.3C26400,131,26880,261,27360,269.5C27840,278,28320,163,28800,138.8C29280,114,29760,180,30240,245C30720,310,31200,376,31680,392C32160,408,32640,376,33120,334.8C33600,294,34080,245,34320,220.5L34560,196L34560,490L34320,490C34080,490,33600,490,33120,490C32640,490,32160,490,31680,490C31200,490,30720,490,30240,490C29760,490,29280,490,28800,490C28320,490,27840,490,27360,490C26880,490,26400,490,25920,490C25440,490,24960,490,24480,490C24000,490,23520,490,23040,490C22560,490,22080,490,21600,490C21120,490,20640,490,20160,490C19680,490,19200,490,18720,490C18240,490,17760,490,17280,490C16800,490,16320,490,15840,490C15360,490,14880,490,14400,490C13920,490,13440,490,12960,490C12480,490,12000,490,11520,490C11040,490,10560,490,10080,490C9600,490,9120,490,8640,490C8160,490,7680,490,7200,490C6720,490,6240,490,5760,490C5280,490,4800,490,4320,490C3840,490,3360,490,2880,490C2400,490,1920,490,1440,490C960,490,480,490,240,490L0,490Z"></path></svg>